<?xml version="1.0" encoding="UTF-8" standalone="no"?>
<!DOCTYPE svg PUBLIC "-//W3C//DTD SVG 1.1//EN" "http://www.w3.org/Graphics/SVG/1.1/DTD/svg11.dtd">
<!-- Generated by graphviz version 9.0.0 (20230911.1827)
 -->
<!-- Title: G Pages: 1 -->
<svg width="691pt" height="184pt" viewBox="0.00 0.00 691.00 183.75" xmlns="http://www.w3.org/2000/svg" xmlns:xlink="http://www.w3.org/1999/xlink">
<g id="graph0" class="graph" transform="scale(1 1) rotate(0) translate(4 179.75)">
<title>G</title>
<polygon fill="white" stroke="none" points="-4,4 -4,-179.75 687,-179.75 687,4 -4,4"/>
<g id="clust1" class="cluster">
<title>cluster_animal</title>
<polygon fill="none" stroke="black" points="8,-8 8,-167.75 675,-167.75 675,-8 8,-8"/>
<text text-anchor="middle" x="341.5" y="-150.45" font-family="Times,serif" font-size="14.00">Animals</text>
</g>
<g id="clust2" class="cluster">
<title>cluster_vertebrate</title>
<polygon fill="none" stroke="black" points="257,-16 257,-134.5 667,-134.5 667,-16 257,-16"/>
<text text-anchor="middle" x="462" y="-117.2" font-family="Times,serif" font-size="14.00">Vertebrate</text>
</g>
<g id="clust3" class="cluster">
<title>cluster_birds</title>
<polygon fill="none" stroke="black" points="443,-24 443,-101.25 659,-101.25 659,-24 443,-24"/>
<text text-anchor="middle" x="551" y="-83.95" font-family="Times,serif" font-size="14.00">Birds</text>
</g>
<g id="clust4" class="cluster">
<title>cluster_mammals</title>
<polygon fill="none" stroke="black" points="265,-24 265,-101.25 435,-101.25 435,-24 265,-24"/>
<text text-anchor="middle" x="350" y="-83.95" font-family="Times,serif" font-size="14.00">Mammals</text>
</g>
<g id="clust5" class="cluster">
<title>cluster_legs</title>
<polygon fill="none" stroke="black" points="16,-24 16,-101.25 249,-101.25 249,-24 16,-24"/>
<text text-anchor="middle" x="132.5" y="-83.95" font-family="Times,serif" font-size="14.00">3+ Legs</text>
</g>
<!-- Eagle -->
<g id="node1" class="node">
<title>Eagle</title>
<ellipse fill="none" stroke="black" cx="611" cy="-50" rx="39.63" ry="18"/>
<text text-anchor="middle" x="611" y="-45.33" font-family="Times,serif" font-size="14.00">Eagle</text>
</g>
<!-- Peacock -->
<g id="node2" class="node">
<title>Peacock</title>
<ellipse fill="none" stroke="black" cx="502" cy="-50" rx="51.21" ry="18"/>
<text text-anchor="middle" x="502" y="-45.33" font-family="Times,serif" font-size="14.00">Peacock</text>
</g>
<!-- Lion -->
<g id="node3" class="node">
<title>Lion</title>
<ellipse fill="none" stroke="black" cx="394" cy="-50" rx="32.79" ry="18"/>
<text text-anchor="middle" x="394" y="-45.33" font-family="Times,serif" font-size="14.00">Lion</text>
</g>
<!-- Bear -->
<g id="node4" class="node">
<title>Bear</title>
<ellipse fill="none" stroke="black" cx="308" cy="-50" rx="34.9" ry="18"/>
<text text-anchor="middle" x="308" y="-45.33" font-family="Times,serif" font-size="14.00">Bear</text>
</g>
<!-- Spider -->
<g id="node5" class="node">
<title>Spider</title>
<ellipse fill="none" stroke="black" cx="197" cy="-50" rx="44.37" ry="18"/>
<text text-anchor="middle" x="197" y="-45.33" font-family="Times,serif" font-size="14.00">Spider</text>
</g>
<!-- Scorpion -->
<g id="node6" class="node">
<title>Scorpion</title>
<ellipse fill="none" stroke="black" cx="79" cy="-50" rx="55.42" ry="18"/>
<text text-anchor="middle" x="79" y="-45.33" font-family="Times,serif" font-size="14.00">Scorpion</text>
</g>
</g>
</svg>