<?xml version="1.0" encoding="UTF-8" standalone="no"?>
<!DOCTYPE svg PUBLIC "-//W3C//DTD SVG 1.1//EN" "http://www.w3.org/Graphics/SVG/1.1/DTD/svg11.dtd">
<!-- Generated by graphviz version 9.0.0 (20230911.1827)
 -->
<!-- Title: G Pages: 1 -->
<svg width="402pt" height="234pt" viewBox="0.00 0.00 402.00 233.75" xmlns="http://www.w3.org/2000/svg" xmlns:xlink="http://www.w3.org/1999/xlink">
<g id="graph0" class="graph" transform="scale(1 1) rotate(0) translate(4 229.75)">
<title>G</title>
<polygon fill="white" stroke="none" points="-4,4 -4,-229.75 398,-229.75 398,4 -4,4"/>
<g id="clust1" class="cluster">
<title>cluster_animal</title>
<polygon fill="none" stroke="black" points="8,-8 8,-217.75 386,-217.75 386,-8 8,-8"/>
<text text-anchor="middle" x="197" y="-200.45" font-family="Times,serif" font-size="14.00">Animals</text>
</g>
<g id="clust2" class="cluster">
<title>cluster_vertebrate</title>
<polygon fill="none" stroke="black" points="150,-16 150,-184.5 378,-184.5 378,-16 150,-16"/>
<text text-anchor="middle" x="264" y="-167.2" font-family="Times,serif" font-size="14.00">Vertebrate</text>
</g>
<g id="clust3" class="cluster">
<title>cluster_birds</title>
<polygon fill="none" stroke="black" points="252,-24 252,-151.25 370,-151.25 370,-24 252,-24"/>
<text text-anchor="middle" x="311" y="-133.95" font-family="Times,serif" font-size="14.00">Birds</text>
</g>
<g id="clust4" class="cluster">
<title>cluster_mammals</title>
<polygon fill="none" stroke="black" points="158,-24 158,-151.25 244,-151.25 244,-24 158,-24"/>
<text text-anchor="middle" x="201" y="-133.95" font-family="Times,serif" font-size="14.00">Mammals</text>
</g>
<g id="clust5" class="cluster">
<title>cluster_legs</title>
<polygon fill="none" stroke="black" points="16,-24 16,-151.25 142,-151.25 142,-24 16,-24"/>
<text text-anchor="middle" x="79" y="-133.95" font-family="Times,serif" font-size="14.00">3+ Legs</text>
</g>
<!-- Eagle -->
<g id="node1" class="node">
<title>Eagle</title>
<ellipse fill="none" stroke="black" cx="311" cy="-100" rx="39.63" ry="18"/>
<text text-anchor="middle" x="311" y="-95.33" font-family="Times,serif" font-size="14.00">Eagle</text>
</g>
<!-- Peacock -->
<g id="node2" class="node">
<title>Peacock</title>
<ellipse fill="none" stroke="black" cx="311" cy="-50" rx="51.21" ry="18"/>
<text text-anchor="middle" x="311" y="-45.33" font-family="Times,serif" font-size="14.00">Peacock</text>
</g>
<!-- Eagle&#45;&gt;Peacock -->
<!-- Lion -->
<g id="node3" class="node">
<title>Lion</title>
<ellipse fill="none" stroke="black" cx="201" cy="-100" rx="32.79" ry="18"/>
<text text-anchor="middle" x="201" y="-95.33" font-family="Times,serif" font-size="14.00">Lion</text>
</g>
<!-- Bear -->
<g id="node4" class="node">
<title>Bear</title>
<ellipse fill="none" stroke="black" cx="201" cy="-50" rx="34.9" ry="18"/>
<text text-anchor="middle" x="201" y="-45.33" font-family="Times,serif" font-size="14.00">Bear</text>
</g>
<!-- Lion&#45;&gt;Bear -->
<!-- Spider -->
<g id="node5" class="node">
<title>Spider</title>
<ellipse fill="none" stroke="black" cx="79" cy="-100" rx="44.37" ry="18"/>
<text text-anchor="middle" x="79" y="-95.33" font-family="Times,serif" font-size="14.00">Spider</text>
</g>
<!-- Scorpion -->
<g id="node6" class="node">
<title>Scorpion</title>
<ellipse fill="none" stroke="black" cx="79" cy="-50" rx="55.42" ry="18"/>
<text text-anchor="middle" x="79" y="-45.33" font-family="Times,serif" font-size="14.00">Scorpion</text>
</g>
<!-- Spider&#45;&gt;Scorpion -->
</g>
</svg>