<?xml version="1.0" encoding="UTF-8" standalone="no"?>
<!DOCTYPE svg PUBLIC "-//W3C//DTD SVG 1.1//EN"
 "http://www.w3.org/Graphics/SVG/1.1/DTD/svg11.dtd">
<!-- Generated by graphviz version 9.0.0 (20230911.1827)
 -->
<!-- Title: Tree Pages: 1 -->
<svg width="624pt" height="314pt"
 viewBox="0.00 0.00 624.00 314.00" xmlns="http://www.w3.org/2000/svg" xmlns:xlink="http://www.w3.org/1999/xlink">
<g id="graph0" class="graph" transform="scale(1 1) rotate(0) translate(4 310)">
<title>Tree</title>
<polygon fill="white" stroke="none" points="-4,4 -4,-310 620,-310 620,4 -4,4"/>
<!-- 0 -->
<g id="node1" class="node">
<title>0</title>
<path fill="#fefcff" stroke="black" d="M380,-306C380,-306 235,-306 235,-306 229,-306 223,-300 223,-294 223,-294 223,-235 223,-235 223,-229 229,-223 235,-223 235,-223 380,-223 380,-223 386,-223 392,-229 392,-235 392,-235 392,-294 392,-294 392,-300 386,-306 380,-306"/>
<text text-anchor="start" x="243.38" y="-288.7" font-family="Helvetica,sans-Serif" font-size="14.00">log_loudness ≤ 1.471</text>
<text text-anchor="start" x="272.25" y="-273.7" font-family="Helvetica,sans-Serif" font-size="14.00">gini = 0.748</text>
<text text-anchor="start" x="262.88" y="-258.7" font-family="Helvetica,sans-Serif" font-size="14.00">samples = 239</text>
<text text-anchor="start" x="231" y="-243.7" font-family="Helvetica,sans-Serif" font-size="14.00">value = [93, 84, 101, 105]</text>
<text text-anchor="start" x="270.38" y="-228.7" font-family="Helvetica,sans-Serif" font-size="14.00">class = Jazz</text>
</g>
<!-- 1 -->
<g id="node2" class="node">
<title>1</title>
<path fill="#fceefd" stroke="black" d="M281,-187C281,-187 166,-187 166,-187 160,-187 154,-181 154,-175 154,-175 154,-116 154,-116 154,-110 160,-104 166,-104 166,-104 281,-104 281,-104 287,-104 293,-110 293,-116 293,-116 293,-175 293,-175 293,-181 287,-187 281,-187"/>
<text text-anchor="start" x="176.25" y="-169.7" font-family="Helvetica,sans-Serif" font-size="14.00">tempo ≤ 95.139</text>
<text text-anchor="start" x="188.25" y="-154.7" font-family="Helvetica,sans-Serif" font-size="14.00">gini = 0.524</text>
<text text-anchor="start" x="178.88" y="-139.7" font-family="Helvetica,sans-Serif" font-size="14.00">samples = 123</text>
<text text-anchor="start" x="162" y="-124.7" font-family="Helvetica,sans-Serif" font-size="14.00">value = [89, 1, 4, 98]</text>
<text text-anchor="start" x="186.38" y="-109.7" font-family="Helvetica,sans-Serif" font-size="14.00">class = Jazz</text>
</g>
<!-- 0&#45;&gt;1 -->
<g id="edge1" class="edge">
<title>0&#45;&gt;1</title>
<path fill="none" stroke="black" d="M278.12,-222.58C272.08,-214.16 265.65,-205.2 259.4,-196.5"/>
<polygon fill="black" stroke="black" points="262.28,-194.51 253.6,-188.43 256.59,-198.59 262.28,-194.51"/>
<text text-anchor="middle" x="248.67" y="-206.07" font-family="Helvetica,sans-Serif" font-size="14.00">True</text>
</g>
<!-- 4 -->
<g id="node5" class="node">
<title>4</title>
<path fill="#e5f2fc" stroke="black" d="M461.62,-187C461.62,-187 323.38,-187 323.38,-187 317.38,-187 311.38,-181 311.38,-175 311.38,-175 311.38,-116 311.38,-116 311.38,-110 317.38,-104 323.38,-104 323.38,-104 461.62,-104 461.62,-104 467.62,-104 473.62,-110 473.62,-116 473.62,-116 473.62,-175 473.62,-175 473.62,-181 467.62,-187 461.62,-187"/>
<text text-anchor="start" x="319.38" y="-169.7" font-family="Helvetica,sans-Serif" font-size="14.00">duration_ms ≤ 233213.0</text>
<text text-anchor="start" x="357.25" y="-154.7" font-family="Helvetica,sans-Serif" font-size="14.00">gini = 0.551</text>
<text text-anchor="start" x="347.88" y="-139.7" font-family="Helvetica,sans-Serif" font-size="14.00">samples = 116</text>
<text text-anchor="start" x="331" y="-124.7" font-family="Helvetica,sans-Serif" font-size="14.00">value = [4, 83, 97, 7]</text>
<text text-anchor="start" x="344.88" y="-109.7" font-family="Helvetica,sans-Serif" font-size="14.00">class = Hip Hop</text>
</g>
<!-- 0&#45;&gt;4 -->
<g id="edge4" class="edge">
<title>0&#45;&gt;4</title>
<path fill="none" stroke="black" d="M337.23,-222.58C343.35,-214.16 349.85,-205.2 356.17,-196.5"/>
<polygon fill="black" stroke="black" points="359,-198.57 362.04,-188.42 353.33,-194.46 359,-198.57"/>
<text text-anchor="middle" x="366.84" y="-206.09" font-family="Helvetica,sans-Serif" font-size="14.00">False</text>
</g>
<!-- 2 -->
<g id="node3" class="node">
<title>2</title>
<path fill="#f5cdb0" stroke="black" d="M127,-68C127,-68 12,-68 12,-68 6,-68 0,-62 0,-56 0,-56 0,-12 0,-12 0,-6 6,0 12,0 12,0 127,0 127,0 133,0 139,-6 139,-12 139,-12 139,-56 139,-56 139,-62 133,-68 127,-68"/>
<text text-anchor="start" x="34.25" y="-50.7" font-family="Helvetica,sans-Serif" font-size="14.00">gini = 0.469</text>
<text text-anchor="start" x="28.62" y="-35.7" font-family="Helvetica,sans-Serif" font-size="14.00">samples = 50</text>
<text text-anchor="start" x="8" y="-20.7" font-family="Helvetica,sans-Serif" font-size="14.00">value = [45, 0, 0, 27]</text>
<text text-anchor="start" x="21.12" y="-5.7" font-family="Helvetica,sans-Serif" font-size="14.00">class = Ambient</text>
</g>
<!-- 1&#45;&gt;2 -->
<g id="edge2" class="edge">
<title>1&#45;&gt;2</title>
<path fill="none" stroke="black" d="M166.16,-103.73C152.82,-94.24 138.63,-84.16 125.36,-74.72"/>
<polygon fill="black" stroke="black" points="127.74,-72.12 117.57,-69.18 123.69,-77.82 127.74,-72.12"/>
</g>
<!-- 3 -->
<g id="node4" class="node">
<title>3</title>
<path fill="#f1b9f6" stroke="black" d="M284,-68C284,-68 169,-68 169,-68 163,-68 157,-62 157,-56 157,-56 157,-12 157,-12 157,-6 163,0 169,0 169,0 284,0 284,0 290,0 296,-6 296,-12 296,-12 296,-56 296,-56 296,-62 290,-68 284,-68"/>
<text text-anchor="start" x="191.25" y="-50.7" font-family="Helvetica,sans-Serif" font-size="14.00">gini = 0.514</text>
<text text-anchor="start" x="185.62" y="-35.7" font-family="Helvetica,sans-Serif" font-size="14.00">samples = 73</text>
<text text-anchor="start" x="165" y="-20.7" font-family="Helvetica,sans-Serif" font-size="14.00">value = [44, 1, 4, 71]</text>
<text text-anchor="start" x="189.38" y="-5.7" font-family="Helvetica,sans-Serif" font-size="14.00">class = Jazz</text>
</g>
<!-- 1&#45;&gt;3 -->
<g id="edge3" class="edge">
<title>1&#45;&gt;3</title>
<path fill="none" stroke="black" d="M224.62,-103.73C224.83,-95.88 225.06,-87.63 225.28,-79.67"/>
<polygon fill="black" stroke="black" points="228.77,-79.9 225.55,-69.81 221.77,-79.71 228.77,-79.9"/>
</g>
<!-- 5 -->
<g id="node6" class="node">
<title>5</title>
<path fill="#cef8ca" stroke="black" d="M447,-68C447,-68 332,-68 332,-68 326,-68 320,-62 320,-56 320,-56 320,-12 320,-12 320,-6 326,0 332,0 332,0 447,0 447,0 453,0 459,-6 459,-12 459,-12 459,-56 459,-56 459,-62 453,-68 447,-68"/>
<text text-anchor="start" x="358" y="-50.7" font-family="Helvetica,sans-Serif" font-size="14.00">gini = 0.51</text>
<text text-anchor="start" x="348.62" y="-35.7" font-family="Helvetica,sans-Serif" font-size="14.00">samples = 77</text>
<text text-anchor="start" x="328" y="-20.7" font-family="Helvetica,sans-Serif" font-size="14.00">value = [3, 72, 52, 0]</text>
<text text-anchor="start" x="350.88" y="-5.7" font-family="Helvetica,sans-Serif" font-size="14.00">class = EDM</text>
</g>
<!-- 4&#45;&gt;5 -->
<g id="edge5" class="edge">
<title>4&#45;&gt;5</title>
<path fill="none" stroke="black" d="M391.38,-103.73C391.17,-95.88 390.94,-87.63 390.72,-79.67"/>
<polygon fill="black" stroke="black" points="394.23,-79.71 390.45,-69.81 387.23,-79.9 394.23,-79.71"/>
</g>
<!-- 6 -->
<g id="node7" class="node">
<title>6</title>
<path fill="#80c0ee" stroke="black" d="M604,-68C604,-68 489,-68 489,-68 483,-68 477,-62 477,-56 477,-56 477,-12 477,-12 477,-6 483,0 489,0 489,0 604,0 604,0 610,0 616,-6 616,-12 616,-12 616,-56 616,-56 616,-62 610,-68 604,-68"/>
<text text-anchor="start" x="511.25" y="-50.7" font-family="Helvetica,sans-Serif" font-size="14.00">gini = 0.464</text>
<text text-anchor="start" x="505.62" y="-35.7" font-family="Helvetica,sans-Serif" font-size="14.00">samples = 39</text>
<text text-anchor="start" x="485" y="-20.7" font-family="Helvetica,sans-Serif" font-size="14.00">value = [1, 11, 45, 7]</text>
<text text-anchor="start" x="498.88" y="-5.7" font-family="Helvetica,sans-Serif" font-size="14.00">class = Hip Hop</text>
</g>
<!-- 4&#45;&gt;6 -->
<g id="edge6" class="edge">
<title>4&#45;&gt;6</title>
<path fill="none" stroke="black" d="M449.84,-103.73C463.18,-94.24 477.37,-84.16 490.64,-74.72"/>
<polygon fill="black" stroke="black" points="492.31,-77.82 498.43,-69.18 488.26,-72.12 492.31,-77.82"/>
</g>
</g>
</svg>
