<?xml version="1.0" encoding="UTF-8" standalone="no"?>
<!DOCTYPE svg PUBLIC "-//W3C//DTD SVG 1.1//EN"
 "http://www.w3.org/Graphics/SVG/1.1/DTD/svg11.dtd">
<!-- Generated by graphviz version 9.0.0 (20230911.1827)
 -->
<!-- Title: Tree Pages: 1 -->
<svg width="613pt" height="314pt"
 viewBox="0.00 0.00 612.50 314.00" xmlns="http://www.w3.org/2000/svg" xmlns:xlink="http://www.w3.org/1999/xlink">
<g id="graph0" class="graph" transform="scale(1 1) rotate(0) translate(4 310)">
<title>Tree</title>
<polygon fill="white" stroke="none" points="-4,4 -4,-310 608.5,-310 608.5,4 -4,4"/>
<!-- 0 -->
<g id="node1" class="node">
<title>0</title>
<path fill="#fdf7f2" stroke="black" d="M368.5,-306C368.5,-306 231,-306 231,-306 225,-306 219,-300 219,-294 219,-294 219,-235 219,-235 219,-229 225,-223 231,-223 231,-223 368.5,-223 368.5,-223 374.5,-223 380.5,-229 380.5,-235 380.5,-235 380.5,-294 380.5,-294 380.5,-300 374.5,-306 368.5,-306"/>
<text text-anchor="start" x="235.62" y="-288.7" font-family="Helvetica,sans-Serif" font-size="14.00">log_loudness ≤ 1.345</text>
<text text-anchor="start" x="264.5" y="-273.7" font-family="Helvetica,sans-Serif" font-size="14.00">gini = 0.748</text>
<text text-anchor="start" x="255.12" y="-258.7" font-family="Helvetica,sans-Serif" font-size="14.00">samples = 237</text>
<text text-anchor="start" x="227" y="-243.7" font-family="Helvetica,sans-Serif" font-size="14.00">value = [110, 91, 91, 91]</text>
<text text-anchor="start" x="251.38" y="-228.7" font-family="Helvetica,sans-Serif" font-size="14.00">class = Ambient</text>
</g>
<!-- 1 -->
<g id="node2" class="node">
<title>1</title>
<path fill="#f9e1d0" stroke="black" d="M279,-187C279,-187 156.5,-187 156.5,-187 150.5,-187 144.5,-181 144.5,-175 144.5,-175 144.5,-116 144.5,-116 144.5,-110 150.5,-104 156.5,-104 156.5,-104 279,-104 279,-104 285,-104 291,-110 291,-116 291,-116 291,-175 291,-175 291,-181 285,-187 279,-187"/>
<text text-anchor="start" x="153.62" y="-169.7" font-family="Helvetica,sans-Serif" font-size="14.00">log_loudness ≤ 0.542</text>
<text text-anchor="start" x="182.5" y="-154.7" font-family="Helvetica,sans-Serif" font-size="14.00">gini = 0.506</text>
<text text-anchor="start" x="173.12" y="-139.7" font-family="Helvetica,sans-Serif" font-size="14.00">samples = 114</text>
<text text-anchor="start" x="152.5" y="-124.7" font-family="Helvetica,sans-Serif" font-size="14.00">value = [106, 0, 3, 80]</text>
<text text-anchor="start" x="169.38" y="-109.7" font-family="Helvetica,sans-Serif" font-size="14.00">class = Ambient</text>
</g>
<!-- 0&#45;&gt;1 -->
<g id="edge1" class="edge">
<title>0&#45;&gt;1</title>
<path fill="none" stroke="black" d="M271.07,-222.58C265.17,-214.16 258.89,-205.2 252.79,-196.5"/>
<polygon fill="black" stroke="black" points="255.75,-194.62 247.14,-188.44 250.02,-198.64 255.75,-194.62"/>
<text text-anchor="middle" x="241.94" y="-206.02" font-family="Helvetica,sans-Serif" font-size="14.00">True</text>
</g>
<!-- 4 -->
<g id="node5" class="node">
<title>4</title>
<path fill="#fafef9" stroke="black" d="M444,-187C444,-187 321.5,-187 321.5,-187 315.5,-187 309.5,-181 309.5,-175 309.5,-175 309.5,-116 309.5,-116 309.5,-110 315.5,-104 321.5,-104 321.5,-104 444,-104 444,-104 450,-104 456,-110 456,-116 456,-116 456,-175 456,-175 456,-181 450,-187 444,-187"/>
<text text-anchor="start" x="337.75" y="-169.7" font-family="Helvetica,sans-Serif" font-size="14.00">energy ≤ 0.771</text>
<text text-anchor="start" x="347.5" y="-154.7" font-family="Helvetica,sans-Serif" font-size="14.00">gini = 0.571</text>
<text text-anchor="start" x="338.12" y="-139.7" font-family="Helvetica,sans-Serif" font-size="14.00">samples = 123</text>
<text text-anchor="start" x="317.5" y="-124.7" font-family="Helvetica,sans-Serif" font-size="14.00">value = [4, 91, 88, 11]</text>
<text text-anchor="start" x="344.12" y="-109.7" font-family="Helvetica,sans-Serif" font-size="14.00">class = EDM</text>
</g>
<!-- 0&#45;&gt;4 -->
<g id="edge4" class="edge">
<title>0&#45;&gt;4</title>
<path fill="none" stroke="black" d="M328.78,-222.58C334.75,-214.16 341.11,-205.2 347.28,-196.5"/>
<polygon fill="black" stroke="black" points="350.07,-198.62 353,-188.43 344.36,-194.57 350.07,-198.62"/>
<text text-anchor="middle" x="358.07" y="-206.05" font-family="Helvetica,sans-Serif" font-size="14.00">False</text>
</g>
<!-- 2 -->
<g id="node3" class="node">
<title>2</title>
<path fill="#e88f4e" stroke="black" d="M119.5,-68C119.5,-68 12,-68 12,-68 6,-68 0,-62 0,-56 0,-56 0,-12 0,-12 0,-6 6,0 12,0 12,0 119.5,0 119.5,0 125.5,0 131.5,-6 131.5,-12 131.5,-12 131.5,-56 131.5,-56 131.5,-62 125.5,-68 119.5,-68"/>
<text text-anchor="start" x="30.5" y="-50.7" font-family="Helvetica,sans-Serif" font-size="14.00">gini = 0.176</text>
<text text-anchor="start" x="24.88" y="-35.7" font-family="Helvetica,sans-Serif" font-size="14.00">samples = 38</text>
<text text-anchor="start" x="8" y="-20.7" font-family="Helvetica,sans-Serif" font-size="14.00">value = [65, 0, 0, 7]</text>
<text text-anchor="start" x="17.38" y="-5.7" font-family="Helvetica,sans-Serif" font-size="14.00">class = Ambient</text>
</g>
<!-- 1&#45;&gt;2 -->
<g id="edge2" class="edge">
<title>1&#45;&gt;2</title>
<path fill="none" stroke="black" d="M161.15,-103.73C148.11,-94.33 134.25,-84.35 121.26,-74.99"/>
<polygon fill="black" stroke="black" points="123.36,-72.19 113.2,-69.18 119.27,-77.87 123.36,-72.19"/>
</g>
<!-- 3 -->
<g id="node4" class="node">
<title>3</title>
<path fill="#eeacf4" stroke="black" d="M276.25,-68C276.25,-68 161.25,-68 161.25,-68 155.25,-68 149.25,-62 149.25,-56 149.25,-56 149.25,-12 149.25,-12 149.25,-6 155.25,0 161.25,0 161.25,0 276.25,0 276.25,0 282.25,0 288.25,-6 288.25,-12 288.25,-12 288.25,-56 288.25,-56 288.25,-62 282.25,-68 276.25,-68"/>
<text text-anchor="start" x="183.5" y="-50.7" font-family="Helvetica,sans-Serif" font-size="14.00">gini = 0.487</text>
<text text-anchor="start" x="177.88" y="-35.7" font-family="Helvetica,sans-Serif" font-size="14.00">samples = 76</text>
<text text-anchor="start" x="157.25" y="-20.7" font-family="Helvetica,sans-Serif" font-size="14.00">value = [41, 0, 3, 73]</text>
<text text-anchor="start" x="181.62" y="-5.7" font-family="Helvetica,sans-Serif" font-size="14.00">class = Jazz</text>
</g>
<!-- 1&#45;&gt;3 -->
<g id="edge3" class="edge">
<title>1&#45;&gt;3</title>
<path fill="none" stroke="black" d="M218.12,-103.73C218.19,-95.88 218.27,-87.63 218.34,-79.67"/>
<polygon fill="black" stroke="black" points="221.84,-79.84 218.43,-69.81 214.84,-79.78 221.84,-79.84"/>
</g>
<!-- 5 -->
<g id="node6" class="node">
<title>5</title>
<path fill="#b6dbf5" stroke="black" d="M443,-68C443,-68 320.5,-68 320.5,-68 314.5,-68 308.5,-62 308.5,-56 308.5,-56 308.5,-12 308.5,-12 308.5,-6 314.5,0 320.5,0 320.5,0 443,0 443,0 449,0 455,-6 455,-12 455,-12 455,-56 455,-56 455,-62 449,-68 443,-68"/>
<text text-anchor="start" x="346.5" y="-50.7" font-family="Helvetica,sans-Serif" font-size="14.00">gini = 0.561</text>
<text text-anchor="start" x="340.88" y="-35.7" font-family="Helvetica,sans-Serif" font-size="14.00">samples = 88</text>
<text text-anchor="start" x="316.5" y="-20.7" font-family="Helvetica,sans-Serif" font-size="14.00">value = [4, 47, 83, 11]</text>
<text text-anchor="start" x="334.12" y="-5.7" font-family="Helvetica,sans-Serif" font-size="14.00">class = Hip Hop</text>
</g>
<!-- 4&#45;&gt;5 -->
<g id="edge5" class="edge">
<title>4&#45;&gt;5</title>
<path fill="none" stroke="black" d="M382.38,-103.73C382.31,-95.88 382.23,-87.63 382.16,-79.67"/>
<polygon fill="black" stroke="black" points="385.66,-79.78 382.07,-69.81 378.66,-79.84 385.66,-79.78"/>
</g>
<!-- 6 -->
<g id="node7" class="node">
<title>6</title>
<path fill="#5ce850" stroke="black" d="M592.5,-68C592.5,-68 485,-68 485,-68 479,-68 473,-62 473,-56 473,-56 473,-12 473,-12 473,-6 479,0 485,0 485,0 592.5,0 592.5,0 598.5,0 604.5,-6 604.5,-12 604.5,-12 604.5,-56 604.5,-56 604.5,-62 598.5,-68 592.5,-68"/>
<text text-anchor="start" x="503.5" y="-50.7" font-family="Helvetica,sans-Serif" font-size="14.00">gini = 0.183</text>
<text text-anchor="start" x="497.88" y="-35.7" font-family="Helvetica,sans-Serif" font-size="14.00">samples = 35</text>
<text text-anchor="start" x="481" y="-20.7" font-family="Helvetica,sans-Serif" font-size="14.00">value = [0, 44, 5, 0]</text>
<text text-anchor="start" x="500.12" y="-5.7" font-family="Helvetica,sans-Serif" font-size="14.00">class = EDM</text>
</g>
<!-- 4&#45;&gt;6 -->
<g id="edge6" class="edge">
<title>4&#45;&gt;6</title>
<path fill="none" stroke="black" d="M440.84,-103.73C454.35,-94.24 468.72,-84.16 482.17,-74.72"/>
<polygon fill="black" stroke="black" points="483.9,-77.78 490.07,-69.17 479.87,-72.05 483.9,-77.78"/>
</g>
</g>
</svg>
