<?xml version="1.0" encoding="UTF-8" standalone="no"?>
<!DOCTYPE svg PUBLIC "-//W3C//DTD SVG 1.1//EN"
 "http://www.w3.org/Graphics/SVG/1.1/DTD/svg11.dtd">
<!-- Generated by graphviz version 9.0.0 (20230911.1827)
 -->
<!-- Title: Tree Pages: 1 -->
<svg width="611pt" height="314pt"
 viewBox="0.00 0.00 610.50 314.00" xmlns="http://www.w3.org/2000/svg" xmlns:xlink="http://www.w3.org/1999/xlink">
<g id="graph0" class="graph" transform="scale(1 1) rotate(0) translate(4 310)">
<title>Tree</title>
<polygon fill="white" stroke="none" points="-4,4 -4,-310 606.5,-310 606.5,4 -4,4"/>
<!-- 0 -->
<g id="node1" class="node">
<title>0</title>
<path fill="#fefffe" stroke="black" d="M363.75,-306C363.75,-306 233.75,-306 233.75,-306 227.75,-306 221.75,-300 221.75,-294 221.75,-294 221.75,-235 221.75,-235 221.75,-229 227.75,-223 233.75,-223 233.75,-223 363.75,-223 363.75,-223 369.75,-223 375.75,-229 375.75,-235 375.75,-235 375.75,-294 375.75,-294 375.75,-300 369.75,-306 363.75,-306"/>
<text text-anchor="start" x="234.62" y="-288.7" font-family="Helvetica,sans-Serif" font-size="14.00">log_loudness ≤ 1.345</text>
<text text-anchor="start" x="267.25" y="-273.7" font-family="Helvetica,sans-Serif" font-size="14.00">gini = 0.75</text>
<text text-anchor="start" x="254.12" y="-258.7" font-family="Helvetica,sans-Serif" font-size="14.00">samples = 383</text>
<text text-anchor="start" x="229.75" y="-243.7" font-family="Helvetica,sans-Serif" font-size="14.00">value = [94, 98, 94, 97]</text>
<text text-anchor="start" x="260.12" y="-228.7" font-family="Helvetica,sans-Serif" font-size="14.00">class = EDM</text>
</g>
<!-- 1 -->
<g id="node2" class="node">
<title>1</title>
<path fill="#fefbf9" stroke="black" d="M276.25,-187C276.25,-187 161.25,-187 161.25,-187 155.25,-187 149.25,-181 149.25,-175 149.25,-175 149.25,-116 149.25,-116 149.25,-110 155.25,-104 161.25,-104 161.25,-104 276.25,-104 276.25,-104 282.25,-104 288.25,-110 288.25,-116 288.25,-116 288.25,-175 288.25,-175 288.25,-181 282.25,-187 276.25,-187"/>
<text text-anchor="start" x="158.75" y="-169.7" font-family="Helvetica,sans-Serif" font-size="14.00">danceability ≤ 0.312</text>
<text text-anchor="start" x="183.5" y="-154.7" font-family="Helvetica,sans-Serif" font-size="14.00">gini = 0.516</text>
<text text-anchor="start" x="174.12" y="-139.7" font-family="Helvetica,sans-Serif" font-size="14.00">samples = 178</text>
<text text-anchor="start" x="157.25" y="-124.7" font-family="Helvetica,sans-Serif" font-size="14.00">value = [89, 0, 3, 86]</text>
<text text-anchor="start" x="170.38" y="-109.7" font-family="Helvetica,sans-Serif" font-size="14.00">class = Ambient</text>
</g>
<!-- 0&#45;&gt;1 -->
<g id="edge1" class="edge">
<title>0&#45;&gt;1</title>
<path fill="none" stroke="black" d="M270.77,-222.58C265.01,-214.16 258.89,-205.2 252.94,-196.5"/>
<polygon fill="black" stroke="black" points="255.97,-194.73 247.43,-188.45 250.19,-198.68 255.97,-194.73"/>
<text text-anchor="middle" x="241.96" y="-205.97" font-family="Helvetica,sans-Serif" font-size="14.00">True</text>
</g>
<!-- 4 -->
<g id="node5" class="node">
<title>4</title>
<path fill="#f4fdf3" stroke="black" d="M441,-187C441,-187 318.5,-187 318.5,-187 312.5,-187 306.5,-181 306.5,-175 306.5,-175 306.5,-116 306.5,-116 306.5,-110 312.5,-104 318.5,-104 318.5,-104 441,-104 441,-104 447,-104 453,-110 453,-116 453,-116 453,-175 453,-175 453,-181 447,-187 441,-187"/>
<text text-anchor="start" x="334.75" y="-169.7" font-family="Helvetica,sans-Serif" font-size="14.00">energy ≤ 0.777</text>
<text text-anchor="start" x="344.5" y="-154.7" font-family="Helvetica,sans-Serif" font-size="14.00">gini = 0.571</text>
<text text-anchor="start" x="335.12" y="-139.7" font-family="Helvetica,sans-Serif" font-size="14.00">samples = 205</text>
<text text-anchor="start" x="314.5" y="-124.7" font-family="Helvetica,sans-Serif" font-size="14.00">value = [5, 98, 91, 11]</text>
<text text-anchor="start" x="341.12" y="-109.7" font-family="Helvetica,sans-Serif" font-size="14.00">class = EDM</text>
</g>
<!-- 0&#45;&gt;4 -->
<g id="edge4" class="edge">
<title>0&#45;&gt;4</title>
<path fill="none" stroke="black" d="M327.08,-222.58C332.91,-214.16 339.11,-205.2 345.13,-196.5"/>
<polygon fill="black" stroke="black" points="347.9,-198.66 350.71,-188.44 342.14,-194.67 347.9,-198.66"/>
<text text-anchor="middle" x="356.05" y="-206" font-family="Helvetica,sans-Serif" font-size="14.00">False</text>
</g>
<!-- 2 -->
<g id="node3" class="node">
<title>2</title>
<path fill="#e78b49" stroke="black" d="M119.5,-68C119.5,-68 12,-68 12,-68 6,-68 0,-62 0,-56 0,-56 0,-12 0,-12 0,-6 6,0 12,0 12,0 119.5,0 119.5,0 125.5,0 131.5,-6 131.5,-12 131.5,-12 131.5,-56 131.5,-56 131.5,-62 125.5,-68 119.5,-68"/>
<text text-anchor="start" x="30.5" y="-50.7" font-family="Helvetica,sans-Serif" font-size="14.00">gini = 0.136</text>
<text text-anchor="start" x="24.88" y="-35.7" font-family="Helvetica,sans-Serif" font-size="14.00">samples = 68</text>
<text text-anchor="start" x="8" y="-20.7" font-family="Helvetica,sans-Serif" font-size="14.00">value = [63, 0, 0, 5]</text>
<text text-anchor="start" x="17.38" y="-5.7" font-family="Helvetica,sans-Serif" font-size="14.00">class = Ambient</text>
</g>
<!-- 1&#45;&gt;2 -->
<g id="edge2" class="edge">
<title>1&#45;&gt;2</title>
<path fill="none" stroke="black" d="M161.78,-103.73C148.65,-94.33 134.7,-84.35 121.62,-74.99"/>
<polygon fill="black" stroke="black" points="123.68,-72.15 113.51,-69.18 119.6,-77.85 123.68,-72.15"/>
</g>
<!-- 3 -->
<g id="node4" class="node">
<title>3</title>
<path fill="#e57dee" stroke="black" d="M276.25,-68C276.25,-68 161.25,-68 161.25,-68 155.25,-68 149.25,-62 149.25,-56 149.25,-56 149.25,-12 149.25,-12 149.25,-6 155.25,0 161.25,0 161.25,0 276.25,0 276.25,0 282.25,0 288.25,-6 288.25,-12 288.25,-12 288.25,-56 288.25,-56 288.25,-62 282.25,-68 276.25,-68"/>
<text text-anchor="start" x="183.5" y="-50.7" font-family="Helvetica,sans-Serif" font-size="14.00">gini = 0.401</text>
<text text-anchor="start" x="174.12" y="-35.7" font-family="Helvetica,sans-Serif" font-size="14.00">samples = 110</text>
<text text-anchor="start" x="157.25" y="-20.7" font-family="Helvetica,sans-Serif" font-size="14.00">value = [26, 0, 3, 81]</text>
<text text-anchor="start" x="181.62" y="-5.7" font-family="Helvetica,sans-Serif" font-size="14.00">class = Jazz</text>
</g>
<!-- 1&#45;&gt;3 -->
<g id="edge3" class="edge">
<title>1&#45;&gt;3</title>
<path fill="none" stroke="black" d="M218.75,-103.73C218.75,-95.88 218.75,-87.63 218.75,-79.67"/>
<polygon fill="black" stroke="black" points="222.25,-79.81 218.75,-69.81 215.25,-79.81 222.25,-79.81"/>
</g>
<!-- 5 -->
<g id="node6" class="node">
<title>5</title>
<path fill="#b8dcf6" stroke="black" d="M441,-68C441,-68 318.5,-68 318.5,-68 312.5,-68 306.5,-62 306.5,-56 306.5,-56 306.5,-12 306.5,-12 306.5,-6 312.5,0 318.5,0 318.5,0 441,0 441,0 447,0 453,-6 453,-12 453,-12 453,-56 453,-56 453,-62 447,-68 441,-68"/>
<text text-anchor="start" x="344.5" y="-50.7" font-family="Helvetica,sans-Serif" font-size="14.00">gini = 0.557</text>
<text text-anchor="start" x="335.12" y="-35.7" font-family="Helvetica,sans-Serif" font-size="14.00">samples = 147</text>
<text text-anchor="start" x="314.5" y="-20.7" font-family="Helvetica,sans-Serif" font-size="14.00">value = [4, 49, 84, 10]</text>
<text text-anchor="start" x="332.12" y="-5.7" font-family="Helvetica,sans-Serif" font-size="14.00">class = Hip Hop</text>
</g>
<!-- 4&#45;&gt;5 -->
<g id="edge5" class="edge">
<title>4&#45;&gt;5</title>
<path fill="none" stroke="black" d="M379.75,-103.73C379.75,-95.88 379.75,-87.63 379.75,-79.67"/>
<polygon fill="black" stroke="black" points="383.25,-79.81 379.75,-69.81 376.25,-79.81 383.25,-79.81"/>
</g>
<!-- 6 -->
<g id="node7" class="node">
<title>6</title>
<path fill="#67ea5c" stroke="black" d="M590.5,-68C590.5,-68 483,-68 483,-68 477,-68 471,-62 471,-56 471,-56 471,-12 471,-12 471,-6 477,0 483,0 483,0 590.5,0 590.5,0 596.5,0 602.5,-6 602.5,-12 602.5,-12 602.5,-56 602.5,-56 602.5,-62 596.5,-68 590.5,-68"/>
<text text-anchor="start" x="501.5" y="-50.7" font-family="Helvetica,sans-Serif" font-size="14.00">gini = 0.271</text>
<text text-anchor="start" x="495.88" y="-35.7" font-family="Helvetica,sans-Serif" font-size="14.00">samples = 58</text>
<text text-anchor="start" x="479" y="-20.7" font-family="Helvetica,sans-Serif" font-size="14.00">value = [1, 49, 7, 1]</text>
<text text-anchor="start" x="498.12" y="-5.7" font-family="Helvetica,sans-Serif" font-size="14.00">class = EDM</text>
</g>
<!-- 4&#45;&gt;6 -->
<g id="edge6" class="edge">
<title>4&#45;&gt;6</title>
<path fill="none" stroke="black" d="M438.21,-103.73C451.74,-94.29 466.12,-84.26 479.59,-74.86"/>
<polygon fill="black" stroke="black" points="481.31,-77.93 487.51,-69.34 477.31,-72.19 481.31,-77.93"/>
</g>
</g>
</svg>
