<?xml version="1.0" encoding="UTF-8" standalone="no"?>
<!DOCTYPE svg PUBLIC "-//W3C//DTD SVG 1.1//EN"
 "http://www.w3.org/Graphics/SVG/1.1/DTD/svg11.dtd">
<!-- Generated by graphviz version 9.0.0 (20230911.1827)
 -->
<!-- Title: Tree Pages: 1 -->
<svg width="635pt" height="314pt"
 viewBox="0.00 0.00 634.75 314.00" xmlns="http://www.w3.org/2000/svg" xmlns:xlink="http://www.w3.org/1999/xlink">
<g id="graph0" class="graph" transform="scale(1 1) rotate(0) translate(4 310)">
<title>Tree</title>
<polygon fill="white" stroke="none" points="-4,4 -4,-310 630.75,-310 630.75,4 -4,4"/>
<!-- 0 -->
<g id="node1" class="node">
<title>0</title>
<path fill="#fef9fe" stroke="black" d="M366.25,-306C366.25,-306 221.25,-306 221.25,-306 215.25,-306 209.25,-300 209.25,-294 209.25,-294 209.25,-235 209.25,-235 209.25,-229 215.25,-223 221.25,-223 221.25,-223 366.25,-223 366.25,-223 372.25,-223 378.25,-229 378.25,-235 378.25,-235 378.25,-294 378.25,-294 378.25,-300 372.25,-306 366.25,-306"/>
<text text-anchor="start" x="246.12" y="-288.7" font-family="Helvetica,sans-Serif" font-size="14.00">valence ≤ 0.097</text>
<text text-anchor="start" x="258.5" y="-273.7" font-family="Helvetica,sans-Serif" font-size="14.00">gini = 0.745</text>
<text text-anchor="start" x="249.12" y="-258.7" font-family="Helvetica,sans-Serif" font-size="14.00">samples = 243</text>
<text text-anchor="start" x="217.25" y="-243.7" font-family="Helvetica,sans-Serif" font-size="14.00">value = [92, 75, 104, 112]</text>
<text text-anchor="start" x="256.62" y="-228.7" font-family="Helvetica,sans-Serif" font-size="14.00">class = Jazz</text>
</g>
<!-- 1 -->
<g id="node2" class="node">
<title>1</title>
<path fill="#e88f4f" stroke="black" d="M266.88,-187C266.88,-187 146.62,-187 146.62,-187 140.62,-187 134.62,-181 134.62,-175 134.62,-175 134.62,-116 134.62,-116 134.62,-110 140.62,-104 146.62,-104 146.62,-104 266.88,-104 266.88,-104 272.88,-104 278.88,-110 278.88,-116 278.88,-116 278.88,-175 278.88,-175 278.88,-181 272.88,-187 266.88,-187"/>
<text text-anchor="start" x="142.62" y="-169.7" font-family="Helvetica,sans-Serif" font-size="14.00">log_loudness ≤ 1.611</text>
<text text-anchor="start" x="171.5" y="-154.7" font-family="Helvetica,sans-Serif" font-size="14.00">gini = 0.194</text>
<text text-anchor="start" x="165.88" y="-139.7" font-family="Helvetica,sans-Serif" font-size="14.00">samples = 48</text>
<text text-anchor="start" x="149" y="-124.7" font-family="Helvetica,sans-Serif" font-size="14.00">value = [60, 3, 1, 3]</text>
<text text-anchor="start" x="158.38" y="-109.7" font-family="Helvetica,sans-Serif" font-size="14.00">class = Ambient</text>
</g>
<!-- 0&#45;&gt;1 -->
<g id="edge1" class="edge">
<title>0&#45;&gt;1</title>
<path fill="none" stroke="black" d="M263.32,-222.58C256.99,-214.07 250.26,-205.01 243.73,-196.23"/>
<polygon fill="black" stroke="black" points="246.69,-194.35 237.92,-188.41 241.08,-198.53 246.69,-194.35"/>
<text text-anchor="middle" x="233.38" y="-206.13" font-family="Helvetica,sans-Serif" font-size="14.00">True</text>
</g>
<!-- 4 -->
<g id="node5" class="node">
<title>4</title>
<path fill="#fef9fe" stroke="black" d="M454.25,-187C454.25,-187 309.25,-187 309.25,-187 303.25,-187 297.25,-181 297.25,-175 297.25,-175 297.25,-116 297.25,-116 297.25,-110 303.25,-104 309.25,-104 309.25,-104 454.25,-104 454.25,-104 460.25,-104 466.25,-110 466.25,-116 466.25,-116 466.25,-175 466.25,-175 466.25,-181 460.25,-187 454.25,-187"/>
<text text-anchor="start" x="321.75" y="-169.7" font-family="Helvetica,sans-Serif" font-size="14.00">danceability ≤ 0.519</text>
<text text-anchor="start" x="346.5" y="-154.7" font-family="Helvetica,sans-Serif" font-size="14.00">gini = 0.713</text>
<text text-anchor="start" x="337.12" y="-139.7" font-family="Helvetica,sans-Serif" font-size="14.00">samples = 195</text>
<text text-anchor="start" x="305.25" y="-124.7" font-family="Helvetica,sans-Serif" font-size="14.00">value = [32, 72, 103, 109]</text>
<text text-anchor="start" x="344.62" y="-109.7" font-family="Helvetica,sans-Serif" font-size="14.00">class = Jazz</text>
</g>
<!-- 0&#45;&gt;4 -->
<g id="edge4" class="edge">
<title>0&#45;&gt;4</title>
<path fill="none" stroke="black" d="M324.53,-222.58C330.93,-214.07 337.74,-205.01 344.35,-196.23"/>
<polygon fill="black" stroke="black" points="347.01,-198.51 350.23,-188.41 341.42,-194.3 347.01,-198.51"/>
<text text-anchor="middle" x="354.64" y="-206.15" font-family="Helvetica,sans-Serif" font-size="14.00">False</text>
</g>
<!-- 2 -->
<g id="node3" class="node">
<title>2</title>
<path fill="#e68743" stroke="black" d="M119.5,-68C119.5,-68 12,-68 12,-68 6,-68 0,-62 0,-56 0,-56 0,-12 0,-12 0,-6 6,0 12,0 12,0 119.5,0 119.5,0 125.5,0 131.5,-6 131.5,-12 131.5,-12 131.5,-56 131.5,-56 131.5,-62 125.5,-68 119.5,-68"/>
<text text-anchor="start" x="30.5" y="-50.7" font-family="Helvetica,sans-Serif" font-size="14.00">gini = 0.091</text>
<text text-anchor="start" x="24.88" y="-35.7" font-family="Helvetica,sans-Serif" font-size="14.00">samples = 45</text>
<text text-anchor="start" x="8" y="-20.7" font-family="Helvetica,sans-Serif" font-size="14.00">value = [60, 0, 0, 3]</text>
<text text-anchor="start" x="17.38" y="-5.7" font-family="Helvetica,sans-Serif" font-size="14.00">class = Ambient</text>
</g>
<!-- 1&#45;&gt;2 -->
<g id="edge2" class="edge">
<title>1&#45;&gt;2</title>
<path fill="none" stroke="black" d="M154.25,-103.73C142.27,-94.42 129.54,-84.54 117.59,-75.26"/>
<polygon fill="black" stroke="black" points="119.87,-72.6 109.82,-69.23 115.58,-78.13 119.87,-72.6"/>
</g>
<!-- 3 -->
<g id="node4" class="node">
<title>3</title>
<path fill="#84ee7b" stroke="black" d="M261.75,-68C261.75,-68 161.75,-68 161.75,-68 155.75,-68 149.75,-62 149.75,-56 149.75,-56 149.75,-12 149.75,-12 149.75,-6 155.75,0 161.75,0 161.75,0 261.75,0 261.75,0 267.75,0 273.75,-6 273.75,-12 273.75,-12 273.75,-56 273.75,-56 273.75,-62 267.75,-68 261.75,-68"/>
<text text-anchor="start" x="176.5" y="-50.7" font-family="Helvetica,sans-Serif" font-size="14.00">gini = 0.375</text>
<text text-anchor="start" x="174.62" y="-35.7" font-family="Helvetica,sans-Serif" font-size="14.00">samples = 3</text>
<text text-anchor="start" x="157.75" y="-20.7" font-family="Helvetica,sans-Serif" font-size="14.00">value = [0, 3, 1, 0]</text>
<text text-anchor="start" x="173.12" y="-5.7" font-family="Helvetica,sans-Serif" font-size="14.00">class = EDM</text>
</g>
<!-- 1&#45;&gt;3 -->
<g id="edge3" class="edge">
<title>1&#45;&gt;3</title>
<path fill="none" stroke="black" d="M208.61,-103.73C208.97,-95.88 209.35,-87.63 209.71,-79.67"/>
<polygon fill="black" stroke="black" points="213.2,-79.96 210.16,-69.81 206.21,-79.64 213.2,-79.96"/>
</g>
<!-- 5 -->
<g id="node6" class="node">
<title>5</title>
<path fill="#e995f1" stroke="black" d="M442.75,-68C442.75,-68 312.75,-68 312.75,-68 306.75,-68 300.75,-62 300.75,-56 300.75,-56 300.75,-12 300.75,-12 300.75,-6 306.75,0 312.75,0 312.75,0 442.75,0 442.75,0 448.75,0 454.75,-6 454.75,-12 454.75,-12 454.75,-56 454.75,-56 454.75,-62 448.75,-68 442.75,-68"/>
<text text-anchor="start" x="342.5" y="-50.7" font-family="Helvetica,sans-Serif" font-size="14.00">gini = 0.573</text>
<text text-anchor="start" x="336.88" y="-35.7" font-family="Helvetica,sans-Serif" font-size="14.00">samples = 78</text>
<text text-anchor="start" x="308.75" y="-20.7" font-family="Helvetica,sans-Serif" font-size="14.00">value = [20, 11, 18, 77]</text>
<text text-anchor="start" x="340.62" y="-5.7" font-family="Helvetica,sans-Serif" font-size="14.00">class = Jazz</text>
</g>
<!-- 4&#45;&gt;5 -->
<g id="edge5" class="edge">
<title>4&#45;&gt;5</title>
<path fill="none" stroke="black" d="M380.26,-103.73C379.97,-95.88 379.67,-87.63 379.38,-79.67"/>
<polygon fill="black" stroke="black" points="382.88,-79.68 379.02,-69.81 375.89,-79.93 382.88,-79.68"/>
</g>
<!-- 6 -->
<g id="node7" class="node">
<title>6</title>
<path fill="#daedfa" stroke="black" d="M614.75,-68C614.75,-68 484.75,-68 484.75,-68 478.75,-68 472.75,-62 472.75,-56 472.75,-56 472.75,-12 472.75,-12 472.75,-6 478.75,0 484.75,0 484.75,0 614.75,0 614.75,0 620.75,0 626.75,-6 626.75,-12 626.75,-12 626.75,-56 626.75,-56 626.75,-62 620.75,-68 614.75,-68"/>
<text text-anchor="start" x="514.5" y="-50.7" font-family="Helvetica,sans-Serif" font-size="14.00">gini = 0.664</text>
<text text-anchor="start" x="505.12" y="-35.7" font-family="Helvetica,sans-Serif" font-size="14.00">samples = 117</text>
<text text-anchor="start" x="480.75" y="-20.7" font-family="Helvetica,sans-Serif" font-size="14.00">value = [12, 61, 85, 32]</text>
<text text-anchor="start" x="502.12" y="-5.7" font-family="Helvetica,sans-Serif" font-size="14.00">class = Hip Hop</text>
</g>
<!-- 4&#45;&gt;6 -->
<g id="edge6" class="edge">
<title>4&#45;&gt;6</title>
<path fill="none" stroke="black" d="M444.31,-103.73C458.92,-94.2 474.47,-84.07 489.01,-74.59"/>
<polygon fill="black" stroke="black" points="490.66,-77.69 497.12,-69.3 486.84,-71.83 490.66,-77.69"/>
</g>
</g>
</svg>
