<?xml version="1.0" encoding="UTF-8" standalone="no"?>
<!DOCTYPE svg PUBLIC "-//W3C//DTD SVG 1.1//EN"
 "http://www.w3.org/Graphics/SVG/1.1/DTD/svg11.dtd">
<!-- Generated by graphviz version 2.43.0 (0)
 -->
<!-- Title: Tree Pages: 1 -->
<svg width="615pt" height="314pt"
 viewBox="0.00 0.00 615.00 314.00" xmlns="http://www.w3.org/2000/svg" xmlns:xlink="http://www.w3.org/1999/xlink">
<g id="graph0" class="graph" transform="scale(1 1) rotate(0) translate(4 310)">
<title>Tree</title>
<polygon fill="white" stroke="transparent" points="-4,4 -4,-310 611,-310 611,4 -4,4"/>
<!-- 0 -->
<g id="node1" class="node">
<title>0</title>
<path fill="#fdf7f2" stroke="black" d="M370,-306C370,-306 232,-306 232,-306 226,-306 220,-300 220,-294 220,-294 220,-235 220,-235 220,-229 226,-223 232,-223 232,-223 370,-223 370,-223 376,-223 382,-229 382,-235 382,-235 382,-294 382,-294 382,-300 376,-306 370,-306"/>
<text text-anchor="start" x="236.5" y="-290.8" font-family="Helvetica,sans-Serif" font-size="14.00">log_loudness ≤ 1.345</text>
<text text-anchor="start" x="265.5" y="-275.8" font-family="Helvetica,sans-Serif" font-size="14.00">gini = 0.748</text>
<text text-anchor="start" x="256" y="-260.8" font-family="Helvetica,sans-Serif" font-size="14.00">samples = 237</text>
<text text-anchor="start" x="228" y="-245.8" font-family="Helvetica,sans-Serif" font-size="14.00">value = [110, 91, 91, 91]</text>
<text text-anchor="start" x="252.5" y="-230.8" font-family="Helvetica,sans-Serif" font-size="14.00">class = Ambient</text>
</g>
<!-- 1 -->
<g id="node2" class="node">
<title>1</title>
<path fill="#f9e1d0" stroke="black" d="M280.5,-187C280.5,-187 157.5,-187 157.5,-187 151.5,-187 145.5,-181 145.5,-175 145.5,-175 145.5,-116 145.5,-116 145.5,-110 151.5,-104 157.5,-104 157.5,-104 280.5,-104 280.5,-104 286.5,-104 292.5,-110 292.5,-116 292.5,-116 292.5,-175 292.5,-175 292.5,-181 286.5,-187 280.5,-187"/>
<text text-anchor="start" x="154.5" y="-171.8" font-family="Helvetica,sans-Serif" font-size="14.00">log_loudness ≤ 0.542</text>
<text text-anchor="start" x="183.5" y="-156.8" font-family="Helvetica,sans-Serif" font-size="14.00">gini = 0.506</text>
<text text-anchor="start" x="174" y="-141.8" font-family="Helvetica,sans-Serif" font-size="14.00">samples = 114</text>
<text text-anchor="start" x="153.5" y="-126.8" font-family="Helvetica,sans-Serif" font-size="14.00">value = [106, 0, 3, 80]</text>
<text text-anchor="start" x="170.5" y="-111.8" font-family="Helvetica,sans-Serif" font-size="14.00">class = Ambient</text>
</g>
<!-- 0&#45;&gt;1 -->
<g id="edge1" class="edge">
<title>0&#45;&gt;1</title>
<path fill="none" stroke="black" d="M272.55,-222.91C266.32,-214.01 259.66,-204.51 253.22,-195.33"/>
<polygon fill="black" stroke="black" points="256,-193.2 247.4,-187.02 250.27,-197.22 256,-193.2"/>
<text text-anchor="middle" x="243.07" y="-207.94" font-family="Helvetica,sans-Serif" font-size="14.00">True</text>
</g>
<!-- 4 -->
<g id="node5" class="node">
<title>4</title>
<path fill="#fafef9" stroke="black" d="M445.5,-187C445.5,-187 322.5,-187 322.5,-187 316.5,-187 310.5,-181 310.5,-175 310.5,-175 310.5,-116 310.5,-116 310.5,-110 316.5,-104 322.5,-104 322.5,-104 445.5,-104 445.5,-104 451.5,-104 457.5,-110 457.5,-116 457.5,-116 457.5,-175 457.5,-175 457.5,-181 451.5,-187 445.5,-187"/>
<text text-anchor="start" x="338.5" y="-171.8" font-family="Helvetica,sans-Serif" font-size="14.00">energy ≤ 0.771</text>
<text text-anchor="start" x="348.5" y="-156.8" font-family="Helvetica,sans-Serif" font-size="14.00">gini = 0.571</text>
<text text-anchor="start" x="339" y="-141.8" font-family="Helvetica,sans-Serif" font-size="14.00">samples = 123</text>
<text text-anchor="start" x="318.5" y="-126.8" font-family="Helvetica,sans-Serif" font-size="14.00">value = [4, 91, 88, 11]</text>
<text text-anchor="start" x="345" y="-111.8" font-family="Helvetica,sans-Serif" font-size="14.00">class = EDM</text>
</g>
<!-- 0&#45;&gt;4 -->
<g id="edge4" class="edge">
<title>0&#45;&gt;4</title>
<path fill="none" stroke="black" d="M329.8,-222.91C336.11,-214.01 342.85,-204.51 349.36,-195.33"/>
<polygon fill="black" stroke="black" points="352.32,-197.2 355.25,-187.02 346.61,-193.15 352.32,-197.2"/>
<text text-anchor="middle" x="359.44" y="-207.97" font-family="Helvetica,sans-Serif" font-size="14.00">False</text>
</g>
<!-- 2 -->
<g id="node3" class="node">
<title>2</title>
<path fill="#e88f4e" stroke="black" d="M120,-68C120,-68 12,-68 12,-68 6,-68 0,-62 0,-56 0,-56 0,-12 0,-12 0,-6 6,0 12,0 12,0 120,0 120,0 126,0 132,-6 132,-12 132,-12 132,-56 132,-56 132,-62 126,-68 120,-68"/>
<text text-anchor="start" x="30.5" y="-52.8" font-family="Helvetica,sans-Serif" font-size="14.00">gini = 0.176</text>
<text text-anchor="start" x="25" y="-37.8" font-family="Helvetica,sans-Serif" font-size="14.00">samples = 38</text>
<text text-anchor="start" x="8" y="-22.8" font-family="Helvetica,sans-Serif" font-size="14.00">value = [65, 0, 0, 7]</text>
<text text-anchor="start" x="17.5" y="-7.8" font-family="Helvetica,sans-Serif" font-size="14.00">class = Ambient</text>
</g>
<!-- 1&#45;&gt;2 -->
<g id="edge2" class="edge">
<title>1&#45;&gt;2</title>
<path fill="none" stroke="black" d="M162.03,-103.73C148.52,-94.06 134.14,-83.77 120.73,-74.17"/>
<polygon fill="black" stroke="black" points="122.7,-71.27 112.53,-68.3 118.62,-76.97 122.7,-71.27"/>
</g>
<!-- 3 -->
<g id="node4" class="node">
<title>3</title>
<path fill="#eeacf4" stroke="black" d="M278,-68C278,-68 162,-68 162,-68 156,-68 150,-62 150,-56 150,-56 150,-12 150,-12 150,-6 156,0 162,0 162,0 278,0 278,0 284,0 290,-6 290,-12 290,-12 290,-56 290,-56 290,-62 284,-68 278,-68"/>
<text text-anchor="start" x="184.5" y="-52.8" font-family="Helvetica,sans-Serif" font-size="14.00">gini = 0.487</text>
<text text-anchor="start" x="179" y="-37.8" font-family="Helvetica,sans-Serif" font-size="14.00">samples = 76</text>
<text text-anchor="start" x="158" y="-22.8" font-family="Helvetica,sans-Serif" font-size="14.00">value = [41, 0, 3, 73]</text>
<text text-anchor="start" x="182.5" y="-7.8" font-family="Helvetica,sans-Serif" font-size="14.00">class = Jazz</text>
</g>
<!-- 1&#45;&gt;3 -->
<g id="edge3" class="edge">
<title>1&#45;&gt;3</title>
<path fill="none" stroke="black" d="M219.37,-103.73C219.45,-95.52 219.53,-86.86 219.6,-78.56"/>
<polygon fill="black" stroke="black" points="223.1,-78.33 219.7,-68.3 216.1,-78.27 223.1,-78.33"/>
</g>
<!-- 5 -->
<g id="node6" class="node">
<title>5</title>
<path fill="#b6dbf5" stroke="black" d="M444.5,-68C444.5,-68 321.5,-68 321.5,-68 315.5,-68 309.5,-62 309.5,-56 309.5,-56 309.5,-12 309.5,-12 309.5,-6 315.5,0 321.5,0 321.5,0 444.5,0 444.5,0 450.5,0 456.5,-6 456.5,-12 456.5,-12 456.5,-56 456.5,-56 456.5,-62 450.5,-68 444.5,-68"/>
<text text-anchor="start" x="347.5" y="-52.8" font-family="Helvetica,sans-Serif" font-size="14.00">gini = 0.561</text>
<text text-anchor="start" x="342" y="-37.8" font-family="Helvetica,sans-Serif" font-size="14.00">samples = 88</text>
<text text-anchor="start" x="317.5" y="-22.8" font-family="Helvetica,sans-Serif" font-size="14.00">value = [4, 47, 83, 11]</text>
<text text-anchor="start" x="335" y="-7.8" font-family="Helvetica,sans-Serif" font-size="14.00">class = Hip Hop</text>
</g>
<!-- 4&#45;&gt;5 -->
<g id="edge5" class="edge">
<title>4&#45;&gt;5</title>
<path fill="none" stroke="black" d="M383.63,-103.73C383.55,-95.52 383.47,-86.86 383.4,-78.56"/>
<polygon fill="black" stroke="black" points="386.9,-78.27 383.3,-68.3 379.9,-78.33 386.9,-78.27"/>
</g>
<!-- 6 -->
<g id="node7" class="node">
<title>6</title>
<path fill="#5ce850" stroke="black" d="M595,-68C595,-68 487,-68 487,-68 481,-68 475,-62 475,-56 475,-56 475,-12 475,-12 475,-6 481,0 487,0 487,0 595,0 595,0 601,0 607,-6 607,-12 607,-12 607,-56 607,-56 607,-62 601,-68 595,-68"/>
<text text-anchor="start" x="505.5" y="-52.8" font-family="Helvetica,sans-Serif" font-size="14.00">gini = 0.183</text>
<text text-anchor="start" x="500" y="-37.8" font-family="Helvetica,sans-Serif" font-size="14.00">samples = 35</text>
<text text-anchor="start" x="483" y="-22.8" font-family="Helvetica,sans-Serif" font-size="14.00">value = [0, 44, 5, 0]</text>
<text text-anchor="start" x="502" y="-7.8" font-family="Helvetica,sans-Serif" font-size="14.00">class = EDM</text>
</g>
<!-- 4&#45;&gt;6 -->
<g id="edge6" class="edge">
<title>4&#45;&gt;6</title>
<path fill="none" stroke="black" d="M442.46,-103.73C456.32,-94.06 471.08,-83.77 484.84,-74.17"/>
<polygon fill="black" stroke="black" points="487.06,-76.89 493.26,-68.3 483.05,-71.15 487.06,-76.89"/>
</g>
</g>
</svg>
